<mxfile host="65bd71144e" modified="2021-02-13T10:54:42.667Z" agent="5.0 (Windows NT 10.0; Win64; x64) AppleWebKit/537.36 (KHTML, like Gecko) Code/1.53.2 Chrome/87.0.4280.141 Electron/11.2.1 Safari/537.36" etag="AF72AgIqlADq-TiwHPtv" version="14.2.4" type="embed">
    <diagram id="qI4QFaLaUW93_Kn9zRN2" name="ページ1">
        <mxGraphModel dx="1519" dy="1274" grid="1" gridSize="10" guides="1" tooltips="1" connect="1" arrows="1" fold="1" page="1" pageScale="1" pageWidth="1169" pageHeight="827" math="0" shadow="0">
            <root>
                <mxCell id="0"/>
                <mxCell id="1" value="背景" style="" parent="0"/>
                <mxCell id="P30rmlV-QF3F4P26b84l-1" value="AWS Cloud" style="points=[[0,0],[0.25,0],[0.5,0],[0.75,0],[1,0],[1,0.25],[1,0.5],[1,0.75],[1,1],[0.75,1],[0.5,1],[0.25,1],[0,1],[0,0.75],[0,0.5],[0,0.25]];outlineConnect=0;gradientColor=none;html=1;whiteSpace=wrap;fontSize=12;fontStyle=0;shape=mxgraph.aws4.group;grIcon=mxgraph.aws4.group_aws_cloud_alt;strokeColor=#232F3E;fillColor=none;verticalAlign=top;align=left;spacingLeft=30;fontColor=#232F3E;dashed=0;" parent="1" vertex="1">
                    <mxGeometry x="320" y="160" width="800" height="640" as="geometry"/>
                </mxCell>
                <mxCell id="P30rmlV-QF3F4P26b84l-3" value="VPC" style="points=[[0,0],[0.25,0],[0.5,0],[0.75,0],[1,0],[1,0.25],[1,0.5],[1,0.75],[1,1],[0.75,1],[0.5,1],[0.25,1],[0,1],[0,0.75],[0,0.5],[0,0.25]];outlineConnect=0;gradientColor=none;html=1;whiteSpace=wrap;fontSize=12;fontStyle=0;shape=mxgraph.aws4.group;grIcon=mxgraph.aws4.group_vpc;strokeColor=#248814;fillColor=none;verticalAlign=top;align=left;spacingLeft=30;fontColor=#AAB7B8;dashed=0;" parent="1" vertex="1">
                    <mxGeometry x="360" y="280" width="740" height="500" as="geometry"/>
                </mxCell>
                <mxCell id="P30rmlV-QF3F4P26b84l-73" value="&lt;span style=&quot;font-size: 25px&quot;&gt;VPC best practice of my way&lt;/span&gt;" style="text;html=1;align=center;verticalAlign=middle;resizable=0;points=[];autosize=1;fontSize=18;" parent="1" vertex="1">
                    <mxGeometry x="30" y="30" width="330" height="30" as="geometry"/>
                </mxCell>
                <mxCell id="P30rmlV-QF3F4P26b84l-16" value="NW" style="locked=1;" parent="0"/>
                <mxCell id="P30rmlV-QF3F4P26b84l-17" value="Public subnet" style="points=[[0,0],[0.25,0],[0.5,0],[0.75,0],[1,0],[1,0.25],[1,0.5],[1,0.75],[1,1],[0.75,1],[0.5,1],[0.25,1],[0,1],[0,0.75],[0,0.5],[0,0.25]];outlineConnect=0;gradientColor=none;html=1;whiteSpace=wrap;fontSize=12;fontStyle=0;shape=mxgraph.aws4.group;grIcon=mxgraph.aws4.group_security_group;grStroke=0;strokeColor=#248814;fillColor=#E9F3E6;verticalAlign=top;align=left;spacingLeft=30;fontColor=#248814;dashed=0;" parent="P30rmlV-QF3F4P26b84l-16" vertex="1">
                    <mxGeometry x="400" y="320" width="160" height="440" as="geometry"/>
                </mxCell>
                <mxCell id="P30rmlV-QF3F4P26b84l-18" value="Internal subnet" style="points=[[0,0],[0.25,0],[0.5,0],[0.75,0],[1,0],[1,0.25],[1,0.5],[1,0.75],[1,1],[0.75,1],[0.5,1],[0.25,1],[0,1],[0,0.75],[0,0.5],[0,0.25]];outlineConnect=0;gradientColor=none;html=1;whiteSpace=wrap;fontSize=12;fontStyle=0;shape=mxgraph.aws4.group;grIcon=mxgraph.aws4.group_security_group;grStroke=0;strokeColor=#147EBA;fillColor=#E6F2F8;verticalAlign=top;align=left;spacingLeft=30;fontColor=#147EBA;dashed=0;" parent="P30rmlV-QF3F4P26b84l-16" vertex="1">
                    <mxGeometry x="600" y="320" width="280" height="440" as="geometry"/>
                </mxCell>
                <mxCell id="P30rmlV-QF3F4P26b84l-19" value="Private subnet" style="points=[[0,0],[0.25,0],[0.5,0],[0.75,0],[1,0],[1,0.25],[1,0.5],[1,0.75],[1,1],[0.75,1],[0.5,1],[0.25,1],[0,1],[0,0.75],[0,0.5],[0,0.25]];outlineConnect=0;gradientColor=none;html=1;whiteSpace=wrap;fontSize=12;fontStyle=0;shape=mxgraph.aws4.group;grIcon=mxgraph.aws4.group_security_group;grStroke=0;strokeColor=#147EBA;fillColor=#E6F2F8;verticalAlign=top;align=left;spacingLeft=30;fontColor=#147EBA;dashed=0;" parent="P30rmlV-QF3F4P26b84l-16" vertex="1">
                    <mxGeometry x="920" y="320" width="140" height="440" as="geometry"/>
                </mxCell>
                <mxCell id="P30rmlV-QF3F4P26b84l-20" value="" style="html=1;endArrow=block;elbow=vertical;startArrow=block;startFill=1;endFill=1;strokeColor=#545B64;rounded=0;" parent="P30rmlV-QF3F4P26b84l-16" edge="1">
                    <mxGeometry width="100" relative="1" as="geometry">
                        <mxPoint x="525" y="750" as="sourcePoint"/>
                        <mxPoint x="645" y="750" as="targetPoint"/>
                    </mxGeometry>
                </mxCell>
                <mxCell id="P30rmlV-QF3F4P26b84l-21" value="Routing OK" style="edgeLabel;html=1;align=center;verticalAlign=middle;resizable=0;points=[];" parent="P30rmlV-QF3F4P26b84l-20" vertex="1" connectable="0">
                    <mxGeometry x="0.2249" y="1" relative="1" as="geometry">
                        <mxPoint x="-13" y="1.19" as="offset"/>
                    </mxGeometry>
                </mxCell>
                <mxCell id="P30rmlV-QF3F4P26b84l-22" value="" style="html=1;endArrow=block;elbow=vertical;startArrow=block;startFill=1;endFill=1;strokeColor=#545B64;rounded=0;" parent="P30rmlV-QF3F4P26b84l-16" edge="1">
                    <mxGeometry width="100" relative="1" as="geometry">
                        <mxPoint x="840" y="750" as="sourcePoint"/>
                        <mxPoint x="960" y="750" as="targetPoint"/>
                    </mxGeometry>
                </mxCell>
                <mxCell id="P30rmlV-QF3F4P26b84l-23" value="Routing OK" style="edgeLabel;html=1;align=center;verticalAlign=middle;resizable=0;points=[];" parent="P30rmlV-QF3F4P26b84l-22" vertex="1" connectable="0">
                    <mxGeometry x="0.2249" y="1" relative="1" as="geometry">
                        <mxPoint x="-13" y="1.19" as="offset"/>
                    </mxGeometry>
                </mxCell>
                <mxCell id="P30rmlV-QF3F4P26b84l-39" value="" style="edgeStyle=orthogonalEdgeStyle;html=1;endArrow=none;elbow=vertical;startArrow=block;startFill=1;strokeColor=#545B64;rounded=0;" parent="P30rmlV-QF3F4P26b84l-16" edge="1">
                    <mxGeometry width="100" relative="1" as="geometry">
                        <mxPoint x="280" y="750" as="sourcePoint"/>
                        <mxPoint x="430" y="750" as="targetPoint"/>
                    </mxGeometry>
                </mxCell>
                <mxCell id="P30rmlV-QF3F4P26b84l-40" value="Routing OK" style="edgeLabel;html=1;align=center;verticalAlign=middle;resizable=0;points=[];" parent="P30rmlV-QF3F4P26b84l-39" vertex="1" connectable="0">
                    <mxGeometry x="0.28" y="-4" relative="1" as="geometry">
                        <mxPoint x="-14" y="-4" as="offset"/>
                    </mxGeometry>
                </mxCell>
                <mxCell id="P30rmlV-QF3F4P26b84l-41" value="NAT" style="outlineConnect=0;fontColor=#232F3E;gradientColor=none;fillColor=#5A30B5;strokeColor=none;dashed=0;verticalLabelPosition=bottom;verticalAlign=top;align=center;html=1;fontSize=12;fontStyle=0;aspect=fixed;pointerEvents=1;shape=mxgraph.aws4.nat_gateway;" parent="P30rmlV-QF3F4P26b84l-16" vertex="1">
                    <mxGeometry x="459" y="690" width="42" height="42" as="geometry"/>
                </mxCell>
                <mxCell id="P30rmlV-QF3F4P26b84l-43" value="" style="edgeStyle=orthogonalEdgeStyle;html=1;endArrow=none;elbow=vertical;startArrow=block;startFill=1;strokeColor=#545B64;rounded=0;" parent="P30rmlV-QF3F4P26b84l-16" source="P30rmlV-QF3F4P26b84l-41" edge="1">
                    <mxGeometry width="100" relative="1" as="geometry">
                        <mxPoint x="501" y="730.5" as="sourcePoint"/>
                        <mxPoint x="640" y="731" as="targetPoint"/>
                        <Array as="points">
                            <mxPoint x="530" y="711"/>
                            <mxPoint x="530" y="731"/>
                        </Array>
                    </mxGeometry>
                </mxCell>
                <mxCell id="P30rmlV-QF3F4P26b84l-44" value="Routing OK" style="edgeLabel;html=1;align=center;verticalAlign=middle;resizable=0;points=[];" parent="P30rmlV-QF3F4P26b84l-43" vertex="1" connectable="0">
                    <mxGeometry x="0.28" y="-4" relative="1" as="geometry">
                        <mxPoint x="2" y="-4" as="offset"/>
                    </mxGeometry>
                </mxCell>
                <mxCell id="P30rmlV-QF3F4P26b84l-24" value="SG" style="locked=1;" parent="0"/>
                <mxCell id="P30rmlV-QF3F4P26b84l-25" value="Backend Security Group" style="fillColor=none;strokeColor=#DD3522;verticalAlign=bottom;fontStyle=0;fontColor=#DD3522;spacing=0;spacingBottom=5;" parent="P30rmlV-QF3F4P26b84l-24" vertex="1">
                    <mxGeometry x="610" y="390" width="440" height="310" as="geometry"/>
                </mxCell>
                <mxCell id="P30rmlV-QF3F4P26b84l-26" value="Front Security Group" style="fillColor=none;strokeColor=#DD3522;verticalAlign=top;fontStyle=0;fontColor=#DD3522;" parent="P30rmlV-QF3F4P26b84l-24" vertex="1">
                    <mxGeometry x="410" y="360" width="460" height="310" as="geometry"/>
                </mxCell>
                <mxCell id="P30rmlV-QF3F4P26b84l-27" value="Public Security Group" style="fillColor=none;strokeColor=#DD3522;verticalAlign=top;fontStyle=0;fontColor=#DD3522;" parent="P30rmlV-QF3F4P26b84l-24" vertex="1">
                    <mxGeometry x="420" y="390" width="130" height="130" as="geometry"/>
                </mxCell>
                <mxCell id="P30rmlV-QF3F4P26b84l-28" value="Limited Security Group" style="fillColor=none;strokeColor=#DD3522;verticalAlign=top;fontStyle=0;fontColor=#DD3522;" parent="P30rmlV-QF3F4P26b84l-24" vertex="1">
                    <mxGeometry x="420" y="530" width="130" height="130" as="geometry"/>
                </mxCell>
                <mxCell id="P30rmlV-QF3F4P26b84l-29" value="Object" style="locked=1;" parent="0"/>
                <mxCell id="P30rmlV-QF3F4P26b84l-30" value="S3" style="outlineConnect=0;fontColor=#232F3E;gradientColor=none;fillColor=#277116;strokeColor=none;dashed=0;verticalLabelPosition=bottom;verticalAlign=top;align=center;html=1;fontSize=12;fontStyle=0;aspect=fixed;pointerEvents=1;shape=mxgraph.aws4.bucket_with_objects;" parent="P30rmlV-QF3F4P26b84l-29" vertex="1">
                    <mxGeometry x="790" y="200" width="38.46" height="40" as="geometry"/>
                </mxCell>
                <mxCell id="P30rmlV-QF3F4P26b84l-33" value="Lambda" style="outlineConnect=0;fontColor=#232F3E;gradientColor=#F78E04;gradientDirection=north;fillColor=#D05C17;strokeColor=#ffffff;dashed=0;verticalLabelPosition=bottom;verticalAlign=top;align=center;html=1;fontSize=12;fontStyle=0;aspect=fixed;shape=mxgraph.aws4.resourceIcon;resIcon=mxgraph.aws4.lambda;" parent="P30rmlV-QF3F4P26b84l-29" vertex="1">
                    <mxGeometry x="650" y="430" width="40" height="40" as="geometry"/>
                </mxCell>
                <mxCell id="P30rmlV-QF3F4P26b84l-34" value="ALB" style="outlineConnect=0;fontColor=#232F3E;gradientColor=none;fillColor=#5A30B5;strokeColor=none;dashed=0;verticalLabelPosition=bottom;verticalAlign=top;align=center;html=1;fontSize=12;fontStyle=0;aspect=fixed;pointerEvents=1;shape=mxgraph.aws4.application_load_balancer;" parent="P30rmlV-QF3F4P26b84l-29" vertex="1">
                    <mxGeometry x="460" y="438" width="40" height="40" as="geometry"/>
                </mxCell>
                <mxCell id="P30rmlV-QF3F4P26b84l-38" value="ALB" style="outlineConnect=0;fontColor=#232F3E;gradientColor=none;fillColor=#5A30B5;strokeColor=none;dashed=0;verticalLabelPosition=bottom;verticalAlign=top;align=center;html=1;fontSize=12;fontStyle=0;aspect=fixed;pointerEvents=1;shape=mxgraph.aws4.application_load_balancer;" parent="P30rmlV-QF3F4P26b84l-29" vertex="1">
                    <mxGeometry x="460" y="580" width="40" height="40" as="geometry"/>
                </mxCell>
                <mxCell id="P30rmlV-QF3F4P26b84l-45" value="ECS" style="outlineConnect=0;fontColor=#232F3E;gradientColor=#F78E04;gradientDirection=north;fillColor=#D05C17;strokeColor=#ffffff;dashed=0;verticalLabelPosition=bottom;verticalAlign=top;align=center;html=1;fontSize=12;fontStyle=0;aspect=fixed;shape=mxgraph.aws4.resourceIcon;resIcon=mxgraph.aws4.ecs;" parent="P30rmlV-QF3F4P26b84l-29" vertex="1">
                    <mxGeometry x="780" y="500" width="40" height="40" as="geometry"/>
                </mxCell>
                <mxCell id="P30rmlV-QF3F4P26b84l-49" value="EC2" style="outlineConnect=0;fontColor=#232F3E;gradientColor=#F78E04;gradientDirection=north;fillColor=#D05C17;strokeColor=#ffffff;dashed=0;verticalLabelPosition=bottom;verticalAlign=top;align=center;html=1;fontSize=12;fontStyle=0;aspect=fixed;shape=mxgraph.aws4.resourceIcon;resIcon=mxgraph.aws4.compute;" parent="P30rmlV-QF3F4P26b84l-29" vertex="1">
                    <mxGeometry x="690" y="560" width="40" height="40" as="geometry"/>
                </mxCell>
                <mxCell id="P30rmlV-QF3F4P26b84l-51" value="ECR" style="outlineConnect=0;dashed=0;verticalLabelPosition=bottom;verticalAlign=top;align=center;html=1;shape=mxgraph.aws3.ecr;fillColor=#F58534;gradientColor=none;" parent="P30rmlV-QF3F4P26b84l-29" vertex="1">
                    <mxGeometry x="880" y="200" width="40" height="40" as="geometry"/>
                </mxCell>
                <mxCell id="P30rmlV-QF3F4P26b84l-52" value="Code Serise" style="outlineConnect=0;dashed=0;verticalLabelPosition=bottom;verticalAlign=top;align=center;html=1;shape=mxgraph.aws3.codebuild;fillColor=#759C3E;gradientColor=none;" parent="P30rmlV-QF3F4P26b84l-29" vertex="1">
                    <mxGeometry x="970" y="190" width="40" height="50" as="geometry"/>
                </mxCell>
                <mxCell id="P30rmlV-QF3F4P26b84l-53" value="Elastic Cache" style="outlineConnect=0;fontColor=#232F3E;gradientColor=#4D72F3;gradientDirection=north;fillColor=#3334B9;strokeColor=#ffffff;dashed=0;verticalLabelPosition=bottom;verticalAlign=top;align=center;html=1;fontSize=12;fontStyle=0;aspect=fixed;shape=mxgraph.aws4.resourceIcon;resIcon=mxgraph.aws4.elasticache;" parent="P30rmlV-QF3F4P26b84l-29" vertex="1">
                    <mxGeometry x="960" y="430" width="40" height="40" as="geometry"/>
                </mxCell>
                <mxCell id="P30rmlV-QF3F4P26b84l-54" value="RDS" style="outlineConnect=0;fontColor=#232F3E;gradientColor=#4D72F3;gradientDirection=north;fillColor=#3334B9;strokeColor=#ffffff;dashed=0;verticalLabelPosition=bottom;verticalAlign=top;align=center;html=1;fontSize=12;fontStyle=0;aspect=fixed;shape=mxgraph.aws4.resourceIcon;resIcon=mxgraph.aws4.aurora;" parent="P30rmlV-QF3F4P26b84l-29" vertex="1">
                    <mxGeometry x="958" y="558" width="42" height="42" as="geometry"/>
                </mxCell>
                <mxCell id="P30rmlV-QF3F4P26b84l-58" style="edgeStyle=none;rounded=0;orthogonalLoop=1;jettySize=auto;html=1;" parent="P30rmlV-QF3F4P26b84l-29" target="P30rmlV-QF3F4P26b84l-34" edge="1">
                    <mxGeometry relative="1" as="geometry">
                        <mxPoint x="310" y="390" as="targetPoint"/>
                        <mxPoint x="160" y="458" as="sourcePoint"/>
                    </mxGeometry>
                </mxCell>
                <mxCell id="P30rmlV-QF3F4P26b84l-63" value="HTTPS" style="edgeLabel;html=1;align=center;verticalAlign=middle;resizable=0;points=[];" parent="P30rmlV-QF3F4P26b84l-58" vertex="1" connectable="0">
                    <mxGeometry x="-0.5" y="-3" relative="1" as="geometry">
                        <mxPoint y="-3" as="offset"/>
                    </mxGeometry>
                </mxCell>
                <mxCell id="P30rmlV-QF3F4P26b84l-55" value="Client" style="outlineConnect=0;fontColor=#232F3E;gradientColor=none;fillColor=#232F3E;strokeColor=none;dashed=0;verticalLabelPosition=bottom;verticalAlign=top;align=center;html=1;fontSize=12;fontStyle=0;aspect=fixed;pointerEvents=1;shape=mxgraph.aws4.users;" parent="P30rmlV-QF3F4P26b84l-29" vertex="1">
                    <mxGeometry x="100" y="438" width="40" height="40" as="geometry"/>
                </mxCell>
                <mxCell id="P30rmlV-QF3F4P26b84l-62" style="edgeStyle=none;rounded=0;orthogonalLoop=1;jettySize=auto;html=1;" parent="P30rmlV-QF3F4P26b84l-29" target="P30rmlV-QF3F4P26b84l-38" edge="1">
                    <mxGeometry relative="1" as="geometry">
                        <mxPoint x="160" y="600" as="sourcePoint"/>
                    </mxGeometry>
                </mxCell>
                <mxCell id="P30rmlV-QF3F4P26b84l-64" value="HTTPS" style="edgeLabel;html=1;align=center;verticalAlign=middle;resizable=0;points=[];" parent="P30rmlV-QF3F4P26b84l-62" vertex="1" connectable="0">
                    <mxGeometry x="-0.5067" y="2" relative="1" as="geometry">
                        <mxPoint y="2" as="offset"/>
                    </mxGeometry>
                </mxCell>
                <mxCell id="P30rmlV-QF3F4P26b84l-61" value="Maintainer" style="outlineConnect=0;fontColor=#232F3E;gradientColor=none;fillColor=#232F3E;strokeColor=none;dashed=0;verticalLabelPosition=bottom;verticalAlign=top;align=center;html=1;fontSize=12;fontStyle=0;aspect=fixed;pointerEvents=1;shape=mxgraph.aws4.user;strokeWidth=1;" parent="P30rmlV-QF3F4P26b84l-29" vertex="1">
                    <mxGeometry x="100" y="580" width="40" height="40" as="geometry"/>
                </mxCell>
                <mxCell id="P30rmlV-QF3F4P26b84l-65" value="Web Console" style="outlineConnect=0;fontColor=#232F3E;gradientColor=#F34482;gradientDirection=north;fillColor=#BC1356;strokeColor=#ffffff;dashed=0;verticalLabelPosition=bottom;verticalAlign=top;align=center;html=1;fontSize=12;fontStyle=0;aspect=fixed;shape=mxgraph.aws4.resourceIcon;resIcon=mxgraph.aws4.management_console;" parent="P30rmlV-QF3F4P26b84l-29" vertex="1">
                    <mxGeometry x="660" y="200" width="40" height="40" as="geometry"/>
                </mxCell>
                <mxCell id="P30rmlV-QF3F4P26b84l-66" value="Session Manager" style="outlineConnect=0;fontColor=#232F3E;gradientColor=#F34482;gradientDirection=north;fillColor=#BC1356;strokeColor=#ffffff;dashed=0;verticalLabelPosition=bottom;verticalAlign=top;align=center;html=1;fontSize=12;fontStyle=0;aspect=fixed;shape=mxgraph.aws4.resourceIcon;resIcon=mxgraph.aws4.systems_manager;" parent="P30rmlV-QF3F4P26b84l-29" vertex="1">
                    <mxGeometry x="560" y="200" width="40" height="40" as="geometry"/>
                </mxCell>
                <mxCell id="P30rmlV-QF3F4P26b84l-68" style="edgeStyle=orthogonalEdgeStyle;rounded=0;orthogonalLoop=1;jettySize=auto;html=1;" parent="P30rmlV-QF3F4P26b84l-29" source="P30rmlV-QF3F4P26b84l-67" target="P30rmlV-QF3F4P26b84l-65" edge="1">
                    <mxGeometry relative="1" as="geometry"/>
                </mxCell>
                <mxCell id="P30rmlV-QF3F4P26b84l-71" value="Browser" style="edgeLabel;html=1;align=center;verticalAlign=middle;resizable=0;points=[];" parent="P30rmlV-QF3F4P26b84l-68" vertex="1" connectable="0">
                    <mxGeometry x="0.5438" y="-3" relative="1" as="geometry">
                        <mxPoint x="3" as="offset"/>
                    </mxGeometry>
                </mxCell>
                <mxCell id="P30rmlV-QF3F4P26b84l-67" value="Maintainer" style="outlineConnect=0;fontColor=#232F3E;gradientColor=none;fillColor=#232F3E;strokeColor=none;dashed=0;verticalLabelPosition=bottom;verticalAlign=top;align=center;html=1;fontSize=12;fontStyle=0;aspect=fixed;pointerEvents=1;shape=mxgraph.aws4.user;" parent="P30rmlV-QF3F4P26b84l-29" vertex="1">
                    <mxGeometry x="440" y="60" width="40" height="40" as="geometry"/>
                </mxCell>
                <mxCell id="P30rmlV-QF3F4P26b84l-69" style="edgeStyle=orthogonalEdgeStyle;rounded=0;orthogonalLoop=1;jettySize=auto;html=1;" parent="P30rmlV-QF3F4P26b84l-29" source="P30rmlV-QF3F4P26b84l-67" target="P30rmlV-QF3F4P26b84l-66" edge="1">
                    <mxGeometry relative="1" as="geometry">
                        <mxPoint x="490" y="90" as="sourcePoint"/>
                        <mxPoint x="690" y="210" as="targetPoint"/>
                    </mxGeometry>
                </mxCell>
                <mxCell id="P30rmlV-QF3F4P26b84l-70" value="SSH" style="edgeLabel;html=1;align=center;verticalAlign=middle;resizable=0;points=[];" parent="P30rmlV-QF3F4P26b84l-69" vertex="1" connectable="0">
                    <mxGeometry x="0.3182" y="-2" relative="1" as="geometry">
                        <mxPoint as="offset"/>
                    </mxGeometry>
                </mxCell>
            </root>
        </mxGraphModel>
    </diagram>
</mxfile>